<svg width="70" height="26" viewBox="0 0 70 26" fill="none" xmlns="http://www.w3.org/2000/svg">
<path d="M24.7885 8.26885C24.5816 8.31596 24.3155 8.33952 23.9902 8.33952C23.3398 8.33952 22.7878 8.27827 22.3345 8.15577C21.891 8.02384 21.5164 7.87778 21.2109 7.71759L20.5604 9.4703C20.6984 9.54569 20.866 9.62578 21.0631 9.71059C21.27 9.7954 21.5115 9.8755 21.7875 9.95088C22.0733 10.0263 22.3985 10.0875 22.7632 10.1346C23.1279 10.1912 23.5369 10.2194 23.9902 10.2194C25.3405 10.2194 26.3507 9.96973 27.0209 9.4703C27.6911 8.96145 28.0262 8.25 28.0262 7.33595C28.0262 6.86479 27.9621 6.46431 27.834 6.13449C27.7058 5.80468 27.5087 5.51728 27.2426 5.27227C26.9864 5.02727 26.6611 4.81525 26.2669 4.63621C25.8727 4.44774 25.4095 4.25928 24.8772 4.07082C24.621 3.98601 24.3845 3.90591 24.1676 3.83053C23.9607 3.74572 23.7734 3.6562 23.6059 3.56196C23.4482 3.45831 23.325 3.34523 23.2363 3.22273C23.1476 3.10023 23.1032 2.94946 23.1032 2.77042C23.1032 2.46888 23.2215 2.24743 23.458 2.10608C23.7044 1.95531 24.1036 1.87993 24.6555 1.87993C25.1483 1.87993 25.5672 1.93646 25.9121 2.04954C26.2669 2.1532 26.5872 2.2757 26.873 2.41705L27.5383 0.67847C27.2131 0.508853 26.7991 0.35337 26.2965 0.212022C25.7938 0.0706742 25.1976 0 24.5077 0C23.9262 0 23.4038 0.0706742 22.9406 0.212022C22.4774 0.343947 22.0831 0.537122 21.7579 0.791547C21.4327 1.04597 21.1813 1.35694 21.0039 1.72444C20.8265 2.08252 20.7378 2.48772 20.7378 2.94003C20.7378 3.39235 20.8216 3.7787 20.9892 4.09909C21.1567 4.41005 21.3735 4.67861 21.6396 4.90477C21.9057 5.1215 22.2063 5.30525 22.5414 5.45602C22.8765 5.59737 23.2116 5.72459 23.5467 5.83766C24.3155 6.08267 24.8575 6.31353 25.1729 6.53027C25.4883 6.73758 25.646 7.00143 25.646 7.32182C25.646 7.47259 25.6214 7.60922 25.5721 7.73172C25.5228 7.85423 25.4341 7.96259 25.306 8.05682C25.1779 8.14163 25.0054 8.21231 24.7885 8.26885Z" fill="#008F91"/>
<path fill-rule="evenodd" clip-rule="evenodd" d="M3.89388 10.1488C3.3321 10.1488 2.77032 10.1299 2.20854 10.0922C1.65662 10.064 1.08006 9.98858 0.47886 9.86608V0.367505C0.951936 0.282696 1.46936 0.221445 2.03114 0.183752C2.59292 0.136636 3.11527 0.113079 3.5982 0.113079C4.24868 0.113079 4.84495 0.160194 5.38702 0.254426C5.93894 0.339235 6.41202 0.490006 6.80625 0.706739C7.20048 0.923472 7.506 1.21088 7.72283 1.56896C7.94951 1.91762 8.06285 2.35108 8.06285 2.86936C8.06285 3.65148 7.66862 4.2687 6.88016 4.72102C7.53064 4.9566 7.97415 5.27698 8.21069 5.68218C8.44723 6.08738 8.5655 6.5444 8.5655 7.05325C8.5655 8.08038 8.17127 8.85308 7.38281 9.37136C6.6042 9.88963 5.44123 10.1488 3.89388 10.1488ZM2.72597 5.75286V8.28298C2.89352 8.30183 3.07585 8.31596 3.27296 8.32538C3.47008 8.33481 3.6869 8.33952 3.92344 8.33952C4.61334 8.33952 5.17019 8.24529 5.59399 8.05682C6.01779 7.86836 6.22969 7.5197 6.22969 7.01085C6.22969 6.55854 6.05228 6.23815 5.69748 6.04969C5.34267 5.8518 4.8351 5.75286 4.17476 5.75286H2.72597ZM2.72597 4.07082H3.84952C4.55914 4.07082 5.06671 3.98601 5.37224 3.81639C5.67776 3.63735 5.83053 3.35465 5.83053 2.9683C5.83053 2.57253 5.67284 2.29455 5.35745 2.13435C5.04207 1.97416 4.57885 1.89406 3.96779 1.89406C3.77068 1.89406 3.55878 1.89877 3.3321 1.9082C3.10542 1.9082 2.90337 1.91762 2.72597 1.93647V4.07082Z" fill="#008F91"/>
<path fill-rule="evenodd" clip-rule="evenodd" d="M17.1268 10.0216C17.0184 9.68232 16.8952 9.33366 16.7572 8.97558L16.3729 7.90134H12.3813C12.2532 8.25942 12.1201 8.6175 11.9821 8.97558C11.854 9.33366 11.7357 9.68232 11.6273 10.0216H9.23238C9.61675 8.96616 9.98141 7.99086 10.3264 7.09566C10.6713 6.20046 11.0064 5.35708 11.3316 4.56553C11.6667 3.77399 11.992 3.02484 12.3074 2.3181C12.6326 1.60194 12.9677 0.904626 13.3127 0.226157H15.5154C15.8505 0.904626 16.1807 1.60194 16.5059 2.3181C16.8312 3.02484 17.1564 3.77399 17.4816 4.56553C17.8167 5.35708 18.1568 6.20046 18.5017 7.09566C18.8467 7.99086 19.2113 8.96616 19.5957 10.0216H17.1268ZM14.3623 2.44532C14.313 2.58666 14.2391 2.77984 14.1405 3.02484C14.042 3.26985 13.9286 3.55254 13.8005 3.87293C13.6724 4.19332 13.5295 4.54669 13.3718 4.93304C13.224 5.31939 13.0712 5.72459 12.9135 6.14863H15.8259C15.6682 5.72459 15.5154 5.31939 15.3676 4.93304C15.2197 4.54669 15.0768 4.19332 14.9389 3.87293C14.8107 3.55254 14.6974 3.26985 14.5988 3.02484C14.5003 2.77984 14.4214 2.58666 14.3623 2.44532Z" fill="#008F91"/>
<path fill-rule="evenodd" clip-rule="evenodd" d="M32.8756 0.113079C34.4033 0.113079 35.5761 0.372216 36.3941 0.890491C37.2122 1.39934 37.6212 2.23801 37.6212 3.40648C37.6212 4.58438 37.2072 5.43718 36.3794 5.96488C35.5515 6.48315 34.3688 6.74229 32.8313 6.74229H32.1069V10.0216H29.8007V0.367505C30.3033 0.273273 30.8355 0.20731 31.3973 0.169618C31.9591 0.131925 32.4518 0.113079 32.8756 0.113079ZM33.0235 1.993C32.8559 1.993 32.6884 1.99772 32.5208 2.00714C32.3631 2.01656 32.2252 2.02599 32.1069 2.03541V4.86236H32.8313C33.6296 4.86236 34.2308 4.75871 34.6349 4.5514C35.039 4.34409 35.241 3.95774 35.241 3.39235C35.241 3.11907 35.1868 2.89292 35.0784 2.71388C34.9798 2.53484 34.832 2.39349 34.6349 2.28983C34.4476 2.17676 34.216 2.10137 33.9401 2.06368C33.6641 2.01656 33.3586 1.993 33.0235 1.993Z" fill="#008F91"/>
<path fill-rule="evenodd" clip-rule="evenodd" d="M44.7941 8.97558C44.9321 9.33366 45.0553 9.68232 45.1637 10.0216H47.6326C47.2482 8.96616 46.8835 7.99086 46.5386 7.09566C46.1936 6.20046 45.8536 5.35708 45.5185 4.56553C45.1933 3.77399 44.868 3.02484 44.5428 2.3181C44.2176 1.60194 43.8874 0.904626 43.5523 0.226157H41.3495C41.0046 0.904626 40.6695 1.60194 40.3443 2.3181C40.0289 3.02484 39.7036 3.77399 39.3685 4.56553C39.0433 5.35708 38.7082 6.20046 38.3633 7.09566C38.0183 7.99086 37.6536 8.96616 37.2693 10.0216H39.6642C39.7726 9.68232 39.8909 9.33366 40.019 8.97558C40.157 8.6175 40.2901 8.25942 40.4182 7.90134H44.4098L44.7941 8.97558ZM42.1774 3.02484C42.276 2.77984 42.3499 2.58666 42.3992 2.44532C42.4583 2.58666 42.5372 2.77984 42.6357 3.02484C42.7343 3.26985 42.8476 3.55254 42.9757 3.87293C43.1137 4.19332 43.2566 4.54669 43.4045 4.93304C43.5523 5.31939 43.7051 5.72459 43.8628 6.14863H40.9504C41.1081 5.72459 41.2608 5.31939 41.4087 4.93304C41.5664 4.54669 41.7093 4.19332 41.8374 3.87293C41.9655 3.55254 42.0789 3.26985 42.1774 3.02484Z" fill="#008F91"/>
<path d="M55.8331 10.0216C55.1728 8.9002 54.4582 7.79297 53.6895 6.69988C52.9207 5.6068 52.1027 4.57496 51.2354 3.60437V10.0216H48.9587V0.226157H50.8362C51.1615 0.537122 51.5212 0.918761 51.9154 1.37107C52.3097 1.82339 52.7088 2.30868 53.1129 2.82696C53.5269 3.33581 53.9359 3.86822 54.3399 4.42419C54.744 4.97073 55.1235 5.49843 55.4783 6.00728V0.226157H57.7697V10.0216H55.8331Z" fill="#008F91"/>
<path fill-rule="evenodd" clip-rule="evenodd" d="M66.6231 8.97558C66.761 9.33366 66.8842 9.68232 66.9926 10.0216H69.4615C69.0771 8.96616 68.7125 7.99086 68.3675 7.09566C68.0226 6.20046 67.6825 5.35708 67.3475 4.56553C67.0222 3.77399 66.697 3.02484 66.3717 2.3181C66.0465 1.60194 65.7163 0.904626 65.3812 0.226157H63.1785C62.8335 0.904626 62.4984 1.60194 62.1732 2.3181C61.8578 3.02484 61.5326 3.77399 61.1975 4.56553C60.8722 5.35708 60.5371 6.20046 60.1922 7.09566C59.8472 7.99086 59.4826 8.96616 59.0982 10.0216H61.4931C61.6016 9.68232 61.7198 9.33366 61.8479 8.97558C61.9859 8.6175 62.119 8.25942 62.2471 7.90134H66.2387L66.6231 8.97558ZM64.0064 3.02484C64.1049 2.77984 64.1788 2.58666 64.2281 2.44532C64.2872 2.58666 64.3661 2.77984 64.4646 3.02484C64.5632 3.26985 64.6765 3.55254 64.8047 3.87293C64.9426 4.19332 65.0856 4.54669 65.2334 4.93304C65.3812 5.31939 65.534 5.72459 65.6917 6.14863H62.7793C62.937 5.72459 63.0898 5.31939 63.2376 4.93304C63.3953 4.54669 63.5382 4.19332 63.6663 3.87293C63.7945 3.55254 63.9078 3.26985 64.0064 3.02484Z" fill="#008F91"/>
<path d="M3.16241 25.0782C3.09813 24.9245 3.00493 24.7217 2.8828 24.4698C2.76711 24.2178 2.63534 23.9443 2.4875 23.6493C2.33967 23.3482 2.18862 23.0409 2.03435 22.7275C1.88009 22.4079 1.73225 22.1099 1.59085 21.8333C1.44944 21.5568 1.3241 21.314 1.21483 21.1051C1.10556 20.8961 1.02521 20.7486 0.97379 20.6626C0.890231 21.4308 0.82274 22.2666 0.771319 23.17C0.726325 24.0672 0.684545 25.0106 0.645979 26H0C0.0578489 24.8385 0.122125 23.7261 0.19283 22.663C0.269962 21.5998 0.363163 20.5827 0.472433 19.6117H1.05092C1.24375 19.919 1.44944 20.2754 1.66798 20.681C1.88652 21.0805 2.10184 21.4984 2.31396 21.9347C2.5325 22.3649 2.7414 22.792 2.94065 23.2161C3.14634 23.634 3.32631 24.0119 3.48058 24.3499C3.63484 24.0119 3.8116 23.634 4.01086 23.2161C4.21654 22.792 4.42544 22.3649 4.63755 21.9347C4.8561 21.4984 5.07464 21.0805 5.29318 20.681C5.51172 20.2754 5.7174 19.919 5.91023 19.6117H6.4598C6.56907 20.5827 6.65905 21.5998 6.72976 22.663C6.80689 23.7261 6.87438 24.8385 6.93223 26H6.26697C6.2284 25.0106 6.18341 24.0672 6.13199 23.17C6.08699 22.2666 6.02272 21.4308 5.93916 20.6626C5.88773 20.7486 5.80739 20.8961 5.69812 21.1051C5.58885 21.314 5.46351 21.5568 5.3221 21.8333C5.18069 22.1099 5.03286 22.4079 4.87859 22.7275C4.72433 23.0409 4.57328 23.3482 4.42544 23.6493C4.27761 23.9443 4.14263 24.2178 4.0205 24.4698C3.9048 24.7217 3.81481 24.9245 3.75054 25.0782H3.16241Z" fill="#008F91"/>
<path fill-rule="evenodd" clip-rule="evenodd" d="M19.4491 25.0966C19.5584 25.3854 19.6741 25.6866 19.7962 26H20.5193C20.2558 25.3363 20.0116 24.7187 19.7866 24.1471C19.5616 23.5694 19.3399 23.0256 19.1213 22.5155C18.9092 21.9992 18.6971 21.5045 18.485 21.0313C18.2729 20.5581 18.0479 20.0849 17.8101 19.6117H17.2316C16.9938 20.0849 16.7688 20.5581 16.5567 21.0313C16.3446 21.5045 16.1293 21.9992 15.9107 22.5155C15.6986 23.0256 15.4801 23.5694 15.2551 24.1471C15.0301 24.7187 14.7891 25.3363 14.532 26H15.2165C15.3322 25.6866 15.4447 25.3854 15.554 25.0966C15.6632 24.8078 15.7725 24.5251 15.8818 24.2485H19.131C19.2338 24.5251 19.3399 24.8078 19.4491 25.0966ZM16.7881 21.9439C17.0195 21.397 17.2573 20.8592 17.5016 20.3307C17.7458 20.8592 17.9836 21.397 18.215 21.9439C18.4464 22.4909 18.6842 23.0809 18.9285 23.7139H16.0843C16.3285 23.0809 16.5631 22.4909 16.7881 21.9439Z" fill="#008F91"/>
<path fill-rule="evenodd" clip-rule="evenodd" d="M32.7315 21.5291C32.7315 22.0085 32.5997 22.3864 32.3362 22.663C32.0727 22.9395 31.7256 23.1392 31.2949 23.2622C31.3978 23.3851 31.5295 23.551 31.6902 23.7599C31.8573 23.9689 32.0277 24.1994 32.2012 24.4513C32.3748 24.6971 32.5451 24.9553 32.7122 25.2257C32.8793 25.4961 33.0207 25.7542 33.1364 26H32.4326C32.2976 25.7542 32.1498 25.5084 31.9891 25.2625C31.8348 25.0167 31.6741 24.7801 31.507 24.5527C31.3463 24.3192 31.1889 24.1041 31.0346 23.9074L30.6296 23.3912C30.424 23.4097 30.2183 23.4189 30.0126 23.4189H28.9327V26H28.2771V19.7315C28.5085 19.6701 28.7785 19.6271 29.087 19.6025C29.402 19.5718 29.6912 19.5564 29.9547 19.5564C30.8739 19.5564 31.5649 19.7223 32.0277 20.0542C32.4969 20.386 32.7315 20.8777 32.7315 21.5291ZM30.0319 20.1003C29.7876 20.1003 29.5723 20.1095 29.3859 20.1279C29.2059 20.1402 29.0549 20.1525 28.9327 20.1648V22.8842H29.839C30.1411 22.8842 30.4272 22.8719 30.6971 22.8473C30.9671 22.8166 31.2017 22.7551 31.401 22.663C31.6002 22.5646 31.7577 22.4264 31.8734 22.2481C31.9891 22.0699 32.0469 21.8272 32.0469 21.5199C32.0469 21.2372 31.9891 21.0037 31.8734 20.8193C31.7577 20.6349 31.6066 20.4905 31.4202 20.386C31.2338 20.2754 31.0185 20.2017 30.7743 20.1648C30.5364 20.1218 30.289 20.1003 30.0319 20.1003Z" fill="#008F91"/>
<path d="M44.3703 25.0505C44.6467 25.3639 44.8942 25.6804 45.1127 26H45.8455C45.7491 25.8279 45.6237 25.6405 45.4695 25.4377C45.3216 25.2349 45.1513 25.0259 44.9585 24.8108C44.7721 24.5957 44.5696 24.3837 44.3511 24.1748C44.139 23.9597 43.9204 23.7569 43.6954 23.5664C43.4769 23.3697 43.2584 23.1915 43.0398 23.0317C42.8277 22.8658 42.6284 22.7275 42.442 22.6169C42.6734 22.4141 42.9338 22.1805 43.223 21.9163C43.5187 21.6459 43.8144 21.3724 44.11 21.0958C44.4057 20.8193 44.6853 20.552 44.9488 20.2939C45.2124 20.0296 45.4373 19.8022 45.6237 19.6117H44.8331C44.6789 19.7838 44.4732 19.9958 44.2161 20.2478C43.959 20.4997 43.6826 20.764 43.3869 21.0405C43.0977 21.3171 42.802 21.5936 42.4999 21.8702C42.2042 22.1406 41.9343 22.3803 41.69 22.5892V19.6117H41.0344V26H41.69V22.8381C41.9793 22.9918 42.2781 23.1823 42.5867 23.4097C42.9016 23.637 43.2102 23.889 43.5123 24.1656C43.8144 24.4421 44.1004 24.7371 44.3703 25.0505Z" fill="#008F91"/>
<path d="M53.6033 26V19.6117H57.4599V20.1556H54.259V22.3772H57.1128V22.9119H54.259V25.4561H57.7106V26H53.6033Z" fill="#008F91"/>
<path d="M69.9909 20.1556V19.6117H65.0544V20.1556H67.1948V26H67.8505V20.1556H69.9909Z" fill="#008F91"/>
<path d="M70 15.2451H0.581297V15.8597H70V15.2451Z" fill="#008F91"/>
</svg>
