<svg width="99" height="26" viewBox="0 0 99 26" fill="none" xmlns="http://www.w3.org/2000/svg">
<path d="M16.0359 6.89324C13.8929 7.12056 10.4462 8.52439 6.84255 10.7761C3.91157 12.6069 1.4803 14.622 0.000401546 16.3269V0H26.8821V11.1631C26.6804 11.0342 26.4783 10.905 26.2735 10.7761C22.6698 8.52439 19.2199 7.11748 17.0801 6.89324C16.92 6.87174 16.747 6.85945 16.558 6.86252C16.369 6.85945 16.196 6.87174 16.0359 6.89324Z" fill="#008F91"/>
<path d="M7.64616 12.275C11.0929 9.71918 14.4403 8.02659 16.5576 7.63032C18.675 8.02659 22.0256 9.71918 25.4722 12.275C25.9559 12.6344 26.43 12.9999 26.8817 13.3685V26H0V20.572C0.621431 18.5815 3.59405 15.2823 7.64616 12.275Z" fill="#008F91"/>
<path fill-rule="evenodd" clip-rule="evenodd" d="M43.2225 5.68913C43.2225 6.59881 43.0786 7.40116 42.7908 8.09619C42.5137 8.78101 42.13 9.3585 41.6397 9.82867C41.1495 10.2886 40.5633 10.6361 39.8811 10.8712C39.2096 11.1063 38.4849 11.2238 37.7068 11.2238C36.9501 11.2238 36.236 11.1063 35.5645 10.8712C34.893 10.6361 34.3068 10.2886 33.8059 9.82867C33.305 9.3585 32.9106 8.78101 32.6228 8.09619C32.3351 7.40116 32.1912 6.59881 32.1912 5.68913C32.1912 4.77945 32.3404 3.98221 32.6388 3.2974C32.9372 2.60236 33.3369 2.01976 33.8379 1.54959C34.3495 1.07942 34.9357 0.726796 35.5965 0.491711C36.268 0.256626 36.9714 0.139084 37.7068 0.139084C38.4636 0.139084 39.1777 0.256626 39.8491 0.491711C40.5206 0.726796 41.1068 1.07942 41.6078 1.54959C42.1087 2.01976 42.5031 2.60236 42.7908 3.2974C43.0786 3.98221 43.2225 4.77945 43.2225 5.68913ZM34.7651 5.68913C34.7651 6.2104 34.8291 6.68057 34.957 7.09964C35.0955 7.5187 35.2874 7.88155 35.5325 8.18818C35.7883 8.48459 36.0974 8.71457 36.4598 8.87811C36.8222 9.04164 37.2379 9.12341 37.7068 9.12341C38.1651 9.12341 38.5755 9.04164 38.9379 8.87811C39.3109 8.71457 39.62 8.48459 39.8651 8.18818C40.1209 7.88155 40.3128 7.5187 40.4407 7.09964C40.5792 6.68057 40.6485 6.2104 40.6485 5.68913C40.6485 5.16785 40.5792 4.69768 40.4407 4.27862C40.3128 3.84934 40.1209 3.48649 39.8651 3.19008C39.62 2.88344 39.3109 2.64836 38.9379 2.48482C38.5755 2.32128 38.1651 2.23952 37.7068 2.23952C37.2379 2.23952 36.8222 2.32639 36.4598 2.50015C36.0974 2.66369 35.7883 2.89878 35.5325 3.20541C35.2874 3.50182 35.0955 3.86467 34.957 4.29395C34.8291 4.71302 34.7651 5.17808 34.7651 5.68913Z" fill="#008F91"/>
<path d="M53.1443 0.38439V2.4235H49.8029V11.0092H47.3089V2.4235H43.9675V0.38439H53.1443Z" fill="#008F91"/>
<path fill-rule="evenodd" clip-rule="evenodd" d="M57.1293 4.15597V2.40816H62.1014V0.38439H54.7472V10.7639C55.3227 10.8968 55.8929 10.9888 56.4578 11.0399C57.0334 11.091 57.545 11.1165 57.9926 11.1165C59.6447 11.1165 60.913 10.8303 61.7976 10.258C62.6929 9.67535 63.1406 8.79634 63.1406 7.62091C63.1406 6.98721 63.0233 6.4506 62.7889 6.01109C62.5544 5.57159 62.2133 5.21385 61.7657 4.93788C61.3287 4.66191 60.7851 4.4626 60.1349 4.33995C59.4954 4.21729 58.7654 4.15597 57.9447 4.15597H57.1293ZM59.0638 9.01609C58.7654 9.05697 58.4509 9.07742 58.1205 9.07742H57.545C57.3851 9.06719 57.2465 9.05697 57.1293 9.04675V6.13375H57.8647C58.2911 6.13375 58.6748 6.15419 59.0158 6.19507C59.3569 6.23596 59.6447 6.31262 59.8791 6.42505C60.1136 6.53748 60.2948 6.69079 60.4227 6.88499C60.5506 7.0792 60.6146 7.32961 60.6146 7.63624C60.6146 7.93266 60.5453 8.17285 60.4067 8.35683C60.2682 8.54081 60.0816 8.68901 59.8472 8.80145C59.6234 8.90366 59.3622 8.97521 59.0638 9.01609Z" fill="#008F91"/>
<path fill-rule="evenodd" clip-rule="evenodd" d="M72.5634 11.0092C72.4462 10.6412 72.3129 10.2631 72.1637 9.87466L71.7481 8.70946H67.4315C67.2929 9.09786 67.149 9.48626 66.9998 9.87466C66.8612 10.2631 66.7333 10.6412 66.6161 11.0092H64.0261C64.4418 9.86444 64.8362 8.80656 65.2092 7.83556C65.5822 6.86455 65.9446 5.94977 66.2963 5.0912C66.6587 4.23263 67.0105 3.42005 67.3515 2.65347C67.7032 1.87667 68.0656 1.12031 68.4387 0.38439H70.8208C71.1832 1.12031 71.5402 1.87667 71.8919 2.65347C72.2437 3.42005 72.5954 4.23263 72.9471 5.0912C73.3095 5.94977 73.6772 6.86455 74.0502 7.83556C74.4233 8.80656 74.8176 9.86444 75.2333 11.0092H72.5634ZM69.5738 2.79145C69.5205 2.94477 69.4405 3.1543 69.334 3.42005C69.2274 3.6858 69.1048 3.99243 68.9662 4.33995C68.8277 4.68746 68.6731 5.07075 68.5026 5.48982C68.3427 5.90888 68.1775 6.34839 68.007 6.80834H71.1565C70.986 6.34839 70.8208 5.90888 70.6609 5.48982C70.501 5.07075 70.3465 4.68746 70.1973 4.33995C70.0587 3.99243 69.9361 3.6858 69.8296 3.42005C69.723 3.1543 69.6377 2.94477 69.5738 2.79145Z" fill="#008F91"/>
<path d="M77.2981 9.78267C78.2467 10.7435 79.6216 11.2238 81.4228 11.2238C82.2648 11.2238 83.0056 11.1421 83.6451 10.9785C84.2846 10.815 84.7802 10.631 85.1319 10.4266L84.4445 8.51015C84.3059 8.57147 84.1514 8.63791 83.9808 8.70946C83.8103 8.78101 83.6131 8.84744 83.3893 8.90877C83.1655 8.95987 82.9097 9.00587 82.6219 9.04675C82.3341 9.08764 82.009 9.10808 81.6467 9.10808C81.0711 9.10808 80.5808 9.0212 80.1758 8.84744C79.7708 8.66346 79.4404 8.41816 79.1846 8.11152C78.9394 7.80489 78.7582 7.44204 78.641 7.02298C78.5344 6.59369 78.4811 6.13375 78.4811 5.64313C78.4811 5.02987 78.5664 4.5086 78.7369 4.07931C78.9075 3.65002 79.1313 3.30251 79.4084 3.03676C79.6962 2.76079 80.0213 2.56148 80.3836 2.43883C80.7567 2.31617 81.1351 2.25485 81.5188 2.25485C82.0943 2.25485 82.6059 2.31617 83.0535 2.43883C83.5118 2.56148 83.9115 2.70969 84.2526 2.88344L84.972 0.95166C84.8868 0.900555 84.7482 0.829007 84.5564 0.737017C84.3645 0.645028 84.1247 0.558148 83.8369 0.47638C83.5492 0.38439 83.2134 0.307732 82.8297 0.246406C82.446 0.174858 82.0197 0.139084 81.5507 0.139084C80.7407 0.139084 79.9893 0.261737 79.2965 0.507043C78.6037 0.752349 78.0068 1.1152 77.5059 1.59559C77.005 2.06576 76.6106 2.64836 76.3228 3.34339C76.0351 4.0282 75.8912 4.81012 75.8912 5.68913C75.8912 7.45738 76.3601 8.82189 77.2981 9.78267Z" fill="#008F91"/>
<path fill-rule="evenodd" clip-rule="evenodd" d="M95.1151 7.52892C95.1151 8.12175 94.9925 8.64302 94.7474 9.09275C94.5129 9.54248 94.1718 9.92066 93.7241 10.2273C93.2872 10.5339 92.7489 10.7639 92.1094 10.9172C91.4806 11.0705 90.7771 11.1472 89.9991 11.1472C89.5514 11.1472 89.0398 11.1165 88.4643 11.0552C87.8994 10.9939 87.3239 10.8968 86.7376 10.7639V0.38439H89.2317V3.91066C89.3489 3.90044 89.4555 3.89533 89.5514 3.89533H89.8872C91.6245 3.89533 92.9301 4.19174 93.8041 4.78456C94.6781 5.37739 95.1151 6.29217 95.1151 7.52892ZM89.7273 5.9191H89.5035C89.4075 5.9191 89.3169 5.92421 89.2317 5.93444V9.10808C89.3489 9.1183 89.4821 9.12341 89.6314 9.12341H90.1749C90.5053 9.12341 90.8144 9.09786 91.1022 9.04675C91.39 8.99565 91.6405 8.90877 91.8536 8.78612C92.0774 8.66346 92.248 8.49993 92.3652 8.2955C92.4931 8.09108 92.5571 7.83556 92.5571 7.52892C92.5571 6.90544 92.3119 6.48126 91.8216 6.2564C91.342 6.03154 90.6439 5.9191 89.7273 5.9191Z" fill="#008F91"/>
<path d="M96.506 0.38439H99V11.0092H96.506V0.38439Z" fill="#008F91"/>
<path fill-rule="evenodd" clip-rule="evenodd" d="M37.5459 19.3583C36.9277 19.2356 36.2243 19.1743 35.4356 19.1743H33.9168V15.9546H39.4164V15.0501H32.8296V25.4756C33.2133 25.5778 33.661 25.6493 34.1726 25.6902C34.6948 25.7413 35.1798 25.7669 35.6274 25.7669C37.1942 25.7669 38.3826 25.496 39.1926 24.9543C40.0027 24.4024 40.4077 23.5693 40.4077 22.4552C40.4077 21.8726 40.2958 21.3718 40.0719 20.9527C39.8481 20.5337 39.523 20.1964 39.0967 19.9409C38.681 19.6751 38.1641 19.4809 37.5459 19.3583ZM33.9168 24.755V20.0635H35.2917C35.8992 20.0635 36.4481 20.0993 36.9384 20.1708C37.4287 20.2322 37.8443 20.3548 38.1854 20.5388C38.5371 20.7126 38.8036 20.9579 38.9848 21.2747C39.1766 21.5813 39.2726 21.98 39.2726 22.4706C39.2726 22.9407 39.1713 23.3291 38.9688 23.6358C38.7769 23.9424 38.5158 24.1877 38.1854 24.3717C37.8657 24.5557 37.4873 24.6834 37.0503 24.755C36.6133 24.8265 36.155 24.8623 35.6754 24.8623C35.2704 24.8623 34.924 24.8521 34.6362 24.8316C34.3591 24.801 34.1193 24.7754 33.9168 24.755Z" fill="#008F91"/>
<path fill-rule="evenodd" clip-rule="evenodd" d="M49.4934 24.1724C49.6746 24.6528 49.8664 25.1536 50.0689 25.6749H51.268C50.831 24.571 50.426 23.5438 50.053 22.5932C49.6799 21.6325 49.3122 20.7279 48.9498 19.8795C48.5981 19.021 48.2464 18.1982 47.8946 17.4111C47.5429 16.6241 47.1699 15.8371 46.7755 15.0501H45.8163C45.4219 15.8371 45.0489 16.6241 44.6972 17.4111C44.3454 18.1982 43.9884 19.021 43.626 19.8795C43.2743 20.7279 42.9119 21.6325 42.5389 22.5932C42.1658 23.5438 41.7661 24.571 41.3398 25.6749H42.4749C42.6668 25.1536 42.8533 24.6528 43.0345 24.1724C43.2157 23.692 43.3969 23.2218 43.578 22.7619H48.9658C49.1363 23.2218 49.3122 23.692 49.4934 24.1724ZM45.0809 18.929C45.4646 18.0193 45.8589 17.125 46.2639 16.2459C46.6689 17.125 47.0633 18.0193 47.447 18.929C47.8307 19.8386 48.2251 20.8199 48.6301 21.8726H43.9138C44.3188 20.8199 44.7078 19.8386 45.0809 18.929Z" fill="#008F91"/>
<path d="M59.9592 15.0501H61.0463V25.6749H59.9592V20.5695H53.9479V25.6749H52.8607V15.0501H53.9479V19.6649H59.9592V15.0501Z" fill="#008F91"/>
<path d="M69.4618 24.0957C69.9201 24.617 70.3305 25.1434 70.6929 25.6749H71.9079C71.748 25.3887 71.5402 25.077 71.2844 24.7397C71.0392 24.4024 70.7568 24.0548 70.437 23.6971C70.128 23.3394 69.7922 22.9867 69.4298 22.6392C69.0781 22.2815 68.7157 21.9442 68.3427 21.6273C67.9803 21.3003 67.6179 21.0039 67.2555 20.7381C66.9038 20.4621 66.5734 20.2322 66.2643 20.0482C66.648 19.7109 67.0797 19.3225 67.5593 18.883C68.0496 18.4333 68.5399 17.9784 69.0302 17.5185C69.5204 17.0585 69.9841 16.6139 70.4211 16.1846C70.858 15.7451 71.2311 15.3669 71.5402 15.0501H70.2292C69.9734 15.3363 69.6324 15.6889 69.206 16.108C68.7797 16.527 68.3214 16.9665 67.8311 17.4265C67.3515 17.8864 66.8612 18.3464 66.3603 18.8063C65.87 19.256 65.4223 19.6547 65.0173 20.0022V15.0501H63.9302V25.6749H65.0173V20.4161C65.4969 20.6717 65.9925 20.9885 66.5041 21.3667C67.0264 21.7449 67.538 22.1639 68.0389 22.6239C68.5399 23.0838 69.0142 23.5745 69.4618 24.0957Z" fill="#008F91"/>
</svg>
