<svg width="35" height="36" viewBox="0 0 35 36" fill="none" xmlns="http://www.w3.org/2000/svg">
<path d="M20.8784 9.77936C18.0883 10.0854 13.6008 11.9751 8.90888 15.0062C5.0928 17.4708 1.92733 20.1835 0.000522806 22.4785V0.5H35V15.5273C34.7374 15.3537 34.4743 15.1798 34.2076 15.0062C29.5157 11.9751 25.024 10.0812 22.238 9.77936C22.0295 9.75041 21.8043 9.73387 21.5582 9.73801C21.3122 9.73387 21.087 9.75041 20.8784 9.77936Z" fill="#008F91"/>
<path d="M9.95517 17.024C14.4427 13.5835 18.801 11.305 21.5577 10.7716C24.3145 11.305 28.6769 13.5835 33.1644 17.024C33.7942 17.5078 34.4114 17.9999 34.9995 18.4961V35.5H0V28.1931C0.809092 25.5135 4.67939 21.0723 9.95517 17.024Z" fill="#008F91"/>
</svg>
