<svg width="19" height="20" viewBox="0 0 19 20" fill="none" xmlns="http://www.w3.org/2000/svg">
<path d="M17.6375 13.64C17.3267 13.4501 17.0709 13.1822 16.8955 12.863C16.7201 12.5437 16.6312 12.1842 16.6375 11.82V9.51C16.6768 7.84407 16.1534 6.21353 15.1518 4.88172C14.1502 3.54991 12.7289 2.59457 11.1175 2.17C11.1278 2.07695 11.1278 1.98305 11.1175 1.89V1.51C11.1149 1.11033 10.955 0.727781 10.6724 0.445168C10.3898 0.162554 10.0072 0.00262086 9.60754 0C9.20879 0.00264073 8.82728 0.162895 8.54626 0.445789C8.26524 0.728684 8.10753 1.11125 8.10754 1.51V1.89C8.09722 1.98305 8.09722 2.07695 8.10754 2.17C6.52228 2.54978 5.1125 3.45554 4.10819 4.73953C3.10388 6.02352 2.56433 7.60995 2.57754 9.24V11.82C2.58491 12.1844 2.49642 12.5443 2.32091 12.8637C2.14541 13.1831 1.88906 13.4508 1.57754 13.64C1.21545 13.8553 0.926462 14.1744 0.74813 14.5561C0.569797 14.9377 0.510359 15.3641 0.577536 15.78C0.664979 16.2663 0.921887 16.7059 1.30266 17.0208C1.68344 17.3357 2.16347 17.5054 2.65754 17.5H6.31753C6.50582 18.2178 6.92715 18.8528 7.51537 19.3053C8.10359 19.7578 8.82541 20.0021 9.56753 20C10.3092 20.0004 11.0302 19.7554 11.6181 19.3032C12.206 18.851 12.6277 18.217 12.8175 17.5H16.4475C16.9416 17.5054 17.4216 17.3357 17.8024 17.0208C18.1832 16.7059 18.4401 16.2663 18.5275 15.78C18.6055 15.3753 18.5627 14.9566 18.4045 14.5761C18.2462 14.1956 17.9795 13.87 17.6375 13.64Z" fill="#ADB0B3"/>
</svg>
